Preview_Crispy[wght,wdth,SRIF]-weight_824.72_width_180.18_VL.ufo
<glyph name="exclam" format="2">
  <advance width="873"/>
  <unicode hex="0021"/>
  <outline>
    <contour>
      <point x="192.98686600042842" y="647.1297118575786" type="line" identifier="1m237t4hyw"/>
      <point x="776.3553369585189" y="647.1297118575786" type="line" identifier="S4rO5KuHiL"/>
      <point x="776.3553369585189" y="1600.0" type="line" identifier="zfocDyDTCM"/>
      <point x="192.98686600042842" y="1600.0" type="line" identifier="v7N4yg5XNk"/>
    </contour>
    <component base="period" xOffset="44.10604395290653"/>
  </outline>
</glyph>
<glyph name="comma" format="2">
  <advance width="963"/>
  <unicode hex="002C"/>
  <outline>
    <contour>
      <point x="438.7597932789004" y="-527.5033270435392" type="line"/>
      <point x="626.1119805898865" y="0.0" type="line"/>
      <point x="626.1119805898865" y="356.65427336901564" type="line"/>
      <point x="115.78063039306869" y="356.65427336901564" type="line"/>
      <point x="44.15872957353825" y="266.37283812350205" type="line"/>
      <point x="44.15872957353825" y="0.0" type="line"/>
      <point x="360.2988370018687" y="0.0" type="line"/>
      <point x="360.2988370018687" y="-527.5033270435392" type="line"/>
    </contour>
  </outline>
</glyph>
<glyph name="period" format="2">
  <advance width="1078"/>
  <unicode hex="002E"/>
  <outline>
    <contour>
      <point x="734.0337750275124" y="0.0" type="line" identifier="1m237t4hyw"/>
      <point x="734.0337750275124" y="406.9579960869163" type="line"/>
      <point x="147.88082204752186" y="406.9579960869163" type="line" identifier="zfocDyDTCM"/>
      <point x="147.88082204752186" y="0.0" type="line" identifier="S4rO5KuHiL"/>
    </contour>
  </outline>
</glyph>
<glyph name="one" format="2">
  <advance width="3584"/>
  <unicode hex="0031"/>
  <outline>
    <contour>
      <point x="267.00526191697736" y="0.0" type="line"/>
      <point x="3492.3874042873517" y="0.0" type="line" identifier="CURJAw79Zl"/>
      <point x="3492.3874042873517" y="367.4647469537684" type="line" identifier="0DUCJo8xIi"/>
      <point x="2176.369912761351" y="367.4647469537684" type="line" identifier="5nmxQXofSG"/>
      <point x="2176.369912761351" y="1600.0" type="line" identifier="4rjIeWbSbx"/>
      <point x="296.06485420454476" y="1600.0" type="line"/>
      <point x="296.06485420454476" y="1232.5352530462317" type="line"/>
      <point x="1594.850587726824" y="1232.5352530462317" type="line"/>
      <point x="1594.850587726824" y="367.4647469537684" type="line"/>
      <point x="267.00526191697736" y="367.4647469537684" type="line"/>
    </contour>
  </outline>
</glyph>
<glyph name="two" format="2">
  <advance width="4475"/>
  <unicode hex="0032"/>
  <outline>
    <contour>
      <point x="370.9814807479003" y="0.0" type="line"/>
      <point x="4120.3122487143355" y="0.0" type="line" identifier="pzdvPTirLJ"/>
      <point x="4120.078024696157" y="359.92436478271657" type="line"/>
      <point x="966.7639113890802" y="359.92436478271657" type="line"/>
      <point x="966.7639113890802" y="637.4811204154754" type="line"/>
      <point x="4101.106466983724" y="637.4811204154754" type="line" identifier="yyb1NCCI5w"/>
      <point x="4101.106466983724" y="1600.0" type="line" identifier="5FogYRSgkk"/>
      <point x="378.4800706313848" y="1600.0" type="line" identifier="svlFvrau4c"/>
      <point x="378.4800706313848" y="991.8186841890304" type="line" identifier="LQ9fBsTy9K"/>
      <point x="959.9993956659118" y="991.8186841890304" type="line"/>
      <point x="959.9993956659118" y="1240.0756352172837" type="line"/>
      <point x="3519.1532159673757" y="1240.0756352172837" type="line"/>
      <point x="3519.1532159673757" y="978.4223468379093" type="line"/>
      <point x="370.9814807479003" y="978.4223468379093" type="line" identifier="teVKnpBcVb"/>
    </contour>
  </outline>
</glyph>
<glyph name="three" format="2">
  <advance width="4420"/>
  <unicode hex="0033"/>
  <outline>
    <contour>
      <point x="329.1210966202205" y="0.0" type="line" identifier="O9abUc1nmN"/>
      <point x="4200.48960518784" y="0.0" type="line" identifier="kMJYMTfXCq"/>
      <point x="4201.255381169662" y="975.0368294423874" type="line" identifier="su2XmdS8e8"/>
      <point x="3658.608395608189" y="975.0368294423874" type="line" identifier="JQaOzDQqlF"/>
      <point x="3949.0366703424606" y="1277.0326242815818" type="line"/>
      <point x="3949.0366703424606" y="1600.0" type="line" identifier="xg8x2Ki40p"/>
      <point x="460.04956079914365" y="1600.0" type="line" identifier="pE1XSRiy68"/>
      <point x="460.04956079914365" y="982.4723635155588" type="line" identifier="5lNstGRcSF"/>
      <point x="1042.2183297935915" y="982.4723635155588" type="line" identifier="AcE5xKDZfE"/>
      <point x="1042.2183297935915" y="1238.4908551590258" type="line" identifier="7ogBYufWpl"/>
      <point x="3367.0834193261117" y="1238.4908551590258" type="line" identifier="RHLvSX2Jv6"/>
      <point x="3367.0834193261117" y="1240.6886692504922" type="line"/>
      <point x="3112.1988015865727" y="975.0368294423874" type="line" identifier="iic1IBkDqp"/>
      <point x="1180.9500026462704" y="975.0368294423874" type="line" identifier="lRLJEhXMlO"/>
      <point x="1180.9500026462704" y="617.9314687361074" type="line" identifier="8aKgEELrVU"/>
      <point x="3619.086612175214" y="618.8151367142073" type="line" identifier="Dm8zjmbhNr"/>
      <point x="3618.536354171493" y="361.5091448409743" type="line" identifier="xv9CFHiFgB"/>
      <point x="911.0743476365686" y="361.5091448409743" type="line" identifier="YajKQV3MHP"/>
      <point x="911.0743476365686" y="741.5918146055069" type="line" identifier="36SchVkwze"/>
      <point x="329.1210966202205" y="741.5918146055069" type="line" identifier="tVui9PiOjA"/>
    </contour>
  </outline>
</glyph>
<glyph name="four" format="2">
  <advance width="4342"/>
  <unicode hex="0034"/>
  <outline>
    <contour>
      <point x="3239.341976334873" y="0.0" type="line"/>
      <point x="3820.8613013694003" y="0.0" type="line"/>
      <point x="3820.8613013694003" y="596.2687445687769" type="line"/>
      <point x="4169.311533384285" y="596.2687445687769" type="line"/>
      <point x="4169.311533384285" y="963.5179735444456" type="line"/>
      <point x="3820.8613013694003" y="963.5179735444456" type="line"/>
      <point x="3820.8613013694003" y="1600.0" type="line"/>
      <point x="3239.341976334873" y="1600.0" type="line"/>
      <point x="3239.341976334873" y="963.5179735444456" type="line"/>
      <point x="849.4695895047389" y="963.5179735444456" type="line"/>
      <point x="849.4695895047389" y="1170.2421017058186" type="line"/>
      <point x="1086.5723360776376" y="1600.0" type="line"/>
      <point x="504.6190850612896" y="1600.0" type="line"/>
      <point x="267.950264470212" y="1169.9102517058186" type="line"/>
      <point x="267.950264470212" y="596.2687445687769" type="line"/>
      <point x="3239.341976334873" y="596.2687445687769" type="line"/>
    </contour>
  </outline>
</glyph>
<glyph name="five" format="2">
  <advance width="4563"/>
  <unicode hex="0035"/>
  <outline>
    <contour>
      <point x="340.17029872600006" y="0.0" type="line" identifier="09VlJ0BjUX"/>
      <point x="4221.261745362614" y="0.0" type="line" identifier="EagWihqFM8"/>
      <point x="4221.261745362614" y="994.1950388341879" type="line" identifier="KfNuQA7eZe"/>
      <point x="921.3390677204482" y="994.1950388341879" type="line" identifier="At364YZFEy"/>
      <point x="921.3390677204482" y="1240.0756352172837" type="line" identifier="BcuLfvaQKC"/>
      <point x="4221.261745362614" y="1240.0756352172837" type="line" identifier="3ZUkG35meB"/>
      <point x="4221.261745362614" y="1600.0" type="line" identifier="SaF9ojRFrW"/>
      <point x="339.6042247078213" y="1600.0" type="line" identifier="F4sQEYelA8"/>
      <point x="339.6042247078213" y="644.7134302407021" type="line" identifier="3sQ8t8BZ6b"/>
      <point x="3639.9766443462654" y="644.7134302407021" type="line" identifier="yiV6OCBLHg"/>
      <point x="3639.9766443462654" y="359.92436478271657" type="line" identifier="9kdl9SYsn8"/>
      <point x="922.1235497423482" y="359.92436478271657" type="line" identifier="yZDWuX8LLe"/>
      <point x="922.1235497423482" y="756.2517761838737" type="line" identifier="jYb9001DTm"/>
      <point x="340.17029872600006" y="756.2517761838737" type="line" identifier="ho4DrS0rdW"/>
    </contour>
  </outline>
</glyph>
<glyph name="six" format="2">
  <advance width="4615"/>
  <unicode hex="0036"/>
  <outline>
    <contour>
      <point x="337.9633963219171" y="0.0" type="line" identifier="uiw6aBUf4P"/>
      <point x="4236.629747184119" y="0.0" type="line" identifier="jtYkxiUX6G"/>
      <point x="4236.629747184119" y="950.9302881708237" type="line" identifier="2G5L37c87I"/>
      <point x="919.3663893345439" y="950.9302881708237" type="line"/>
      <point x="919.3663893345439" y="1002.2396011106471" type="line"/>
      <point x="1252.8252708809312" y="1240.0756352172837" type="line"/>
      <point x="3653.4609781896716" y="1240.0756352172837" type="line"/>
      <point x="3653.4609781896716" y="1006.585114105151" type="line"/>
      <point x="4234.863971202298" y="1006.585114105151" type="line" identifier="Wuidbv6mUe"/>
      <point x="4234.863971202298" y="1600.0" type="line" identifier="oGvEEuxnYv"/>
      <point x="856.4340693978643" y="1600.0" type="line" identifier="xR3pEHbMJx"/>
      <point x="337.9633963219171" y="1060.5266615324804" type="line" identifier="KnMArb0tv8"/>
    </contour>
    <contour>
      <point x="3654.8949041714927" y="590.9872173480283" type="line"/>
      <point x="3654.8949041714927" y="359.92436478271657" type="line"/>
      <point x="919.3663893345439" y="359.92436478271657" type="line"/>
      <point x="919.3663893345439" y="590.9872173480283" type="line"/>
    </contour>
  </outline>
</glyph>
<glyph name="seven" format="2">
  <advance width="4493"/>
  <unicode hex="0037"/>
  <outline>
    <contour>
      <point x="1961.1131220968637" y="0.0" type="line"/>
      <point x="2552.7576093607" y="0.0" type="line" identifier="PiPrv7Kcoy"/>
      <point x="4260.55288102051" y="925.5652080719143" type="line" identifier="PkvwNC9Tx1"/>
      <point x="4260.55288102051" y="1600.0" type="line" identifier="tgqM27bPOm"/>
      <point x="364.59202244587556" y="1600.0" type="line" identifier="36ml4xRICt"/>
      <point x="364.59202244587556" y="919.810206459476" type="line" identifier="aaDZsh5Mah"/>
      <point x="946.1113474804025" y="919.810206459476" type="line"/>
      <point x="946.1113474804025" y="1232.5352530462317" type="line"/>
      <point x="3649.305953283597" y="1232.5352530462317" type="line"/>
      <point x="3649.305953283597" y="979.8863765712412" type="line"/>
    </contour>
  </outline>
</glyph>
<glyph name="eight" format="2">
  <advance width="4659"/>
  <unicode hex="0038"/>
  <outline>
    <contour>
      <point x="3432.376574804657" y="619.6455765976916" type="line"/>
      <point x="3737.588739125717" y="400.408530979446" type="line"/>
      <point x="3737.588739125717" y="359.92436478271657" type="line"/>
      <point x="920.2012792180284" y="359.92436478271657" type="line"/>
      <point x="920.2012792180284" y="397.15560092118824" type="line"/>
      <point x="1226.8660755609887" y="619.6455765976916" type="line"/>
    </contour>
    <contour>
      <point x="3960.6881733361356" y="791.5990360983368" type="line"/>
      <point x="3960.6881733361356" y="808.4009639016632" type="line"/>
      <point x="4316.108064160245" y="1115.5043949883463" type="line"/>
      <point x="4316.108064160245" y="1600.0" type="line"/>
      <point x="342.4664362054016" y="1600.0" type="line"/>
      <point x="342.4664362054016" y="1115.5043949883463" type="line"/>
      <point x="698.9855129857098" y="808.4009639016632" type="line"/>
      <point x="698.9855129857098" y="791.5990360983368" type="line"/>
      <point x="338.91617820168017" y="474.85752706619013" type="line"/>
      <point x="338.91617820168017" y="0.0" type="line"/>
      <point x="4320.108064160245" y="0.0" type="line"/>
      <point x="4320.108064160245" y="474.85752706619013" type="line"/>
    </contour>
    <contour>
      <point x="1226.8660755609887" y="980.3544234023084" type="line"/>
      <point x="924.2012792180284" y="1191.7378730969906" type="line"/>
      <point x="923.9857612399286" y="1240.0756352172837" type="line"/>
      <point x="3734.154813143896" y="1240.0756352172837" type="line"/>
      <point x="3734.154813143896" y="1191.7378730969906" type="line"/>
      <point x="3431.942648822836" y="980.3544234023084" type="line"/>
    </contour>
  </outline>
</glyph>
<glyph name="nine" format="2">
  <advance width="4412"/>
  <unicode hex="0039"/>
  <outline>
    <contour>
      <point x="4081.2667030890757" y="1600.2342240181788" type="line" identifier="uiw6aBUf4P"/>
      <point x="334.7104662636594" y="1600.2342240181788" type="line" identifier="jtYkxiUX6G"/>
      <point x="334.7104662636594" y="650.9720858473552" type="line" identifier="2G5L37c87I"/>
      <point x="3499.9816020727276" y="650.9720858473552" type="line"/>
      <point x="3499.9816020727276" y="362.1772948409743" type="line"/>
      <point x="918.3131612399286" y="362.1772948409743" type="line"/>
      <point x="918.3131612399286" y="527.5281014828947" type="line"/>
      <point x="337.0280602235803" y="527.5281014828947" type="line" identifier="Wuidbv6mUe"/>
      <point x="337.0280602235803" y="0.23422401817877886" type="line" identifier="oGvEEuxnYv"/>
      <point x="4081.2667030890757" y="0.23422401817877886" type="line" identifier="xR3pEHbMJx"/>
    </contour>
    <contour>
      <point x="916.6637172800075" y="1007.4280025937139" type="line"/>
      <point x="916.6637172800075" y="1238.4908551590258" type="line"/>
      <point x="3499.9816020727276" y="1238.4908551590258" type="line"/>
      <point x="3499.9816020727276" y="1007.4280025937139" type="line"/>
    </contour>
  </outline>
</glyph>
<glyph name="A" format="2">
  <advance width="4440"/>
  <unicode hex="0041"/>
  <outline>
    <contour>
      <point x="3981.2373054107643" y="1600.0" type="line" smooth="yes"/>
      <point x="681.5343950689606" y="1600.0" type="line" smooth="yes"/>
      <point x="257.5753260888861" y="0.0" type="line" smooth="yes"/>
      <point x="839.3101691015128" y="0.0" type="line" smooth="yes"/>
      <point x="1220.7051855213383" y="1232.5352530462317" type="line"/>
      <point x="3399.2840543944158" y="1232.5352530462317" type="line" smooth="yes"/>
      <point x="3399.2840543944158" y="0.0" type="line"/>
      <point x="3981.2373054107643" y="0.0" type="line" smooth="yes"/>
    </contour>
    <contour>
      <point x="878.1567245782778" y="537.674465079068" type="line"/>
      <point x="3615.42123807642" y="537.674465079068" type="line"/>
      <point x="3615.42123807642" y="905.5731380146576" type="line"/>
      <point x="917.8672510075542" y="905.5731380146576" type="line"/>
    </contour>
  </outline>
</glyph>
<glyph name="B" format="2">
  <advance width="4515"/>
  <unicode hex="0042"/>
  <outline>
    <contour>
      <point x="458.8425886024701" y="0.0" type="line" identifier="hvY9r8RmLr"/>
      <point x="3858.060092377561" y="0.0" type="line" identifier="9QFpw7nfq7"/>
      <point x="4375.711761377071" y="624.3405107993159" type="line"/>
      <point x="4375.711761377071" y="975.0368294423874" type="line" identifier="543PerILpr"/>
      <point x="3723.8758779073487" y="975.0368294423874" type="line" identifier="zhomauHW30"/>
      <point x="4036.9165540296995" y="1276.2668482997608" type="line"/>
      <point x="4036.9165540296995" y="1600.0" type="line" identifier="FaP204GrdB"/>
      <point x="458.8425886024701" y="1600.0" type="line" identifier="JEev70GAj6"/>
    </contour>
    <contour>
      <point x="1040.361913636997" y="361.5091448409743" type="line" identifier="jaMSiLrCua"/>
      <point x="1040.361913636997" y="616.1124646596709" type="line" identifier="XSrxNd2axx"/>
      <point x="3793.5429923826227" y="616.1124646596709" type="line" identifier="lsRGatjQja"/>
      <point x="3793.5429923826227" y="686.9983932756854" type="line"/>
      <point x="3451.9085407453417" y="361.5091448409743" type="line" identifier="xhlDJ3CjD5"/>
    </contour>
    <contour>
      <point x="1040.361913636997" y="977.8558335188239" type="line" identifier="By7dfMihfe"/>
      <point x="1040.361913636997" y="1238.4908551590258" type="line" identifier="1p5hKrurVy"/>
      <point x="3454.9633030133514" y="1238.4908551590258" type="line" identifier="Qby8aMtF2X"/>
      <point x="3454.9633030133514" y="1240.6886692504922" type="line"/>
      <point x="3167.0336181625644" y="977.8558335188239" type="line" identifier="xpxyvIzPoc"/>
    </contour>
  </outline>
</glyph>
<glyph name="C" format="2">
  <advance width="4535"/>
  <unicode hex="0043"/>
  <outline>
    <contour>
      <point x="334.7104662636594" y="0.0" type="line" identifier="7lPhzTnk2Z"/>
      <point x="4111.659630302809" y="0.0" type="line" identifier="qJVLZGnkwh"/>
      <point x="4111.659630302809" y="656.556817788641" type="line" identifier="nDnDHzAMXL"/>
      <point x="3529.4908613083617" y="656.556817788641" type="line" identifier="QX1V08aTu0"/>
      <point x="3529.4908613083617" y="367.4647469537684" type="line" identifier="Y750RHTvDj"/>
      <point x="916.6637172800075" y="367.4647469537684" type="line" identifier="L2LsGnXiZ2"/>
      <point x="916.6637172800075" y="833.475916753029" type="line" identifier="sUWsr03vF4"/>
      <point x="1258.2047085094844" y="1232.5352530462317" type="line" identifier="dbOUe6OhxL"/>
      <point x="3525.558345443056" y="1232.5352530462317" type="line" identifier="5BjRbcud80"/>
      <point x="3525.558345443056" y="882.7762806951715" type="line" identifier="fNVDqwQo2o"/>
      <point x="4107.077670477583" y="882.7762806951715" type="line" identifier="wLqQQx7QVN"/>
      <point x="4107.077670477583" y="1600.0" type="line" identifier="9eJelv8BOw"/>
      <point x="851.5963592813487" y="1600.0" type="line" identifier="lfZev3ICaC"/>
      <point x="334.7104662636594" y="957.7669212225844" type="line" identifier="V1EWIdPahq"/>
    </contour>
  </outline>
</glyph>
<glyph name="E" format="2">
  <advance width="4392"/>
  <unicode hex="0045"/>
  <outline>
    <contour>
      <point x="462.9995224458756" y="0.0" type="line" identifier="fZynkQ4XHB"/>
      <point x="3941.1417506112207" y="0.0" type="line" identifier="FAQNpgUPxV"/>
      <point x="3941.1417506112207" y="668.1016499596928" type="line" identifier="gHI0YjrPxR"/>
      <point x="3426.2441117628314" y="668.1016499596928" type="line" identifier="gxCIuXb4el"/>
      <point x="3426.2441117628314" y="359.92436478271657" type="line" identifier="5cgTYOhATF"/>
      <point x="1044.4025154585022" y="359.92436478271657" type="line" identifier="bWs42DaCgU"/>
      <point x="1044.4025154585022" y="617.9961326377705" type="line" identifier="VtD2aADJmn"/>
      <point x="2781.436505605218" y="617.9961326377705" type="line" identifier="PpbsFdHAnS"/>
      <point x="2781.436505605218" y="978.2710534605661" type="line" identifier="8WuC5p8Ax5"/>
      <point x="1044.4025154585022" y="978.2710534605661" type="line" identifier="m39IWn9ntA"/>
      <point x="1044.4025154585022" y="1240.0756352172837" type="line" identifier="gQ21I4SHQg"/>
      <point x="3425.2441117628314" y="1240.0756352172837" type="line" identifier="eqNb2VTwYs"/>
      <point x="3425.2441117628314" y="941.1930723861324" type="line" identifier="mLmcFoJA4m"/>
      <point x="3940.1417506112207" y="941.1930723861324" type="line" identifier="e79n7CoPy1"/>
      <point x="3940.1417506112207" y="1600.0" type="line" identifier="qYRmo14Il5"/>
      <point x="462.9995224458756" y="1600.0" type="line" identifier="HmJIcnLWfC"/>
    </contour>
  </outline>
</glyph>
<glyph name="G" format="2">
  <advance width="4522"/>
  <unicode hex="0047"/>
  <outline>
    <contour>
      <point x="339.9348842417591" y="0.0" type="line" identifier="7lPhzTnk2Z"/>
      <point x="4112.201083900106" y="0.0" type="line" identifier="qJVLZGnkwh"/>
      <point x="4112.201083900106" y="947.9632502509817" type="line" identifier="uek1NNj7De"/>
      <point x="2425.1018782335373" y="947.9632502509817" type="line" identifier="qcvimxjndX"/>
      <point x="2425.1018782335373" y="587.922553446365" type="line" identifier="EARaY3Su65"/>
      <point x="3530.466240887479" y="587.922553446365" type="line" identifier="4m6dHLVhZq"/>
      <point x="3530.466240887479" y="359.92436478271657" type="line" identifier="Y750RHTvDj"/>
      <point x="921.4355032362071" y="359.92436478271657" type="line" identifier="L2LsGnXiZ2"/>
      <point x="921.4355032362071" y="840.6384910624965" type="line" identifier="sUWsr03vF4"/>
      <point x="1265.401874666079" y="1240.0756352172837" type="line" identifier="dbOUe6OhxL"/>
      <point x="3522.6830191242316" y="1240.0756352172837" type="line" identifier="5BjRbcud80"/>
      <point x="3522.6830191242316" y="978.02720107034" type="line" identifier="fNVDqwQo2o"/>
      <point x="4104.301530114958" y="978.02720107034" type="line" identifier="wLqQQx7QVN"/>
      <point x="4104.301530114958" y="1600.0" type="line" identifier="9eJelv8BOw"/>
      <point x="867.5767472011908" y="1600.0" type="line" identifier="lfZev3ICaC"/>
      <point x="339.9348842417591" y="965.5070053572788" type="line" identifier="V1EWIdPahq"/>
    </contour>
  </outline>
</glyph>
<glyph name="J" format="2">
  <advance width="4390"/>
  <unicode hex="004A"/>
  <outline>
    <contour>
      <point x="344.5541863545532" y="0.0" type="line" identifier="jiO9eX9U07"/>
      <point x="3926.7693394033213" y="0.0" type="line" identifier="wgpFs1yguc"/>
      <point x="3926.7693394033213" y="1600.0" type="line" identifier="d5Di3vNzni"/>
      <point x="3344.816088386973" y="1600.0" type="line" identifier="46RrD1WET2"/>
      <point x="3344.816088386973" y="367.4647469537684" type="line" identifier="zFXsE8BUYG"/>
      <point x="918.9670551998495" y="367.4647469537684" type="line" identifier="NQmE31PUns"/>
      <point x="918.9670551998495" y="901.6450548486454" type="line" identifier="qiXxY6YhCq"/>
      <point x="345.22233635455325" y="901.6450548486454" type="line" identifier="7exNZv1XSc"/>
    </contour>
  </outline>
</glyph>
<glyph name="M" format="2">
  <advance width="5914"/>
  <unicode hex="004D"/>
  <outline>
    <contour>
      <point x="2392.1827890537243" y="25.419609426700806" type="line" identifier="0Dn4Xpf57M"/>
      <point x="1236.0920586321856" y="1244.56278929372" type="line"/>
      <point x="956.9082973855868" y="1244.56278929372" type="line"/>
      <point x="956.9082973855868" y="0.0" type="line"/>
      <point x="453.3082861983871" y="0.0" type="line"/>
      <point x="453.3082861983871" y="1600.0" type="line"/>
      <point x="1668.670705314101" y="1600.0" type="line"/>
      <point x="2765.361062868588" y="377.34833912708433" type="line"/>
      <point x="3144.4624893909" y="377.34833912708433" type="line" identifier="9aKZPM0HPh"/>
      <point x="4247.300880788792" y="1600.0" type="line"/>
      <point x="5460.429075886327" y="1600.0" type="line"/>
      <point x="5460.429075886327" y="0.0" type="line"/>
      <point x="4956.262990680949" y="0.0" type="line"/>
      <point x="4956.262990680949" y="1244.56278929372" type="line"/>
      <point x="4674.995859492608" y="1244.56278929372" type="line"/>
      <point x="3515.504165169406" y="25.419609426700806" type="line" identifier="spdoeeCFft"/>
    </contour>
  </outline>
</glyph>
<glyph name="N" format="2">
  <advance width="4234"/>
  <unicode hex="004E"/>
  <outline>
    <contour>
      <point x="3714.522533987907" y="0.0" type="line"/>
      <point x="3714.522533987907" y="1600.0" type="line"/>
      <point x="3132.569282971559" y="1600.0" type="line"/>
      <point x="3132.569282971559" y="993.4072884414136" type="line"/>
      <point x="3277.1015378799475" y="993.4072884414136" type="line"/>
      <point x="1230.016357270557" y="1599.0" type="line"/>
      <point x="1034.827611232914" y="1600.0" type="line"/>
      <point x="453.3082861983871" y="1600.0" type="line"/>
      <point x="453.3082861983871" y="0.0" type="line"/>
      <point x="1034.827611232914" y="0.0" type="line"/>
      <point x="1034.827611232914" y="961.625027004495" type="line"/>
      <point x="1052.1443979874284" y="961.625027004495" type="line"/>
      <point x="3132.569282971559" y="460.7600063718473" type="line"/>
      <point x="3132.569282971559" y="0.0" type="line"/>
    </contour>
  </outline>
</glyph>
<glyph name="O" format="2">
  <advance width="4505"/>
  <unicode hex="004F"/>
  <outline>
    <contour>
      <point x="4167.920983587774" y="632.9642629121099" type="line" identifier="ob8US3C311"/>
      <point x="4167.920983587774" y="1600.0" type="line" identifier="c9brEFyXXA"/>
      <point x="855.7329573177063" y="1600.0" type="line" identifier="a4Ql951bxG"/>
      <point x="337.9633963219171" y="956.8832532444845" type="line" identifier="kbL68Qh2zr"/>
      <point x="337.9633963219171" y="0.0" type="line" identifier="U6WibAQAUl"/>
      <point x="3650.3856466101633" y="0.0" type="line" identifier="dfgNHTgBfR"/>
    </contour>
    <contour>
      <point x="3586.084064593326" y="689.4323192575066" type="line" identifier="SnrsQD5TLy"/>
      <point x="3251.3075890870173" y="367.4647469537684" type="line" identifier="jjd5iRDXWT"/>
      <point x="919.482721356444" y="367.4647469537684" type="line" identifier="YbQKHpAtYn"/>
      <point x="919.482721356444" y="902.0646408590088" type="line" identifier="vdfGLkskOQ"/>
      <point x="1254.2262347825945" y="1232.5352530462317" type="line" identifier="qXlVxK5ShE"/>
      <point x="3586.084064593326" y="1232.5352530462317" type="line" identifier="g70r2r6DwY"/>
    </contour>
  </outline>
</glyph>
<glyph name="P" format="2">
  <advance width="4600"/>
  <unicode hex="0050"/>
  <outline>
    <contour>
      <point x="470.465150249202" y="0.0" type="line" identifier="EG08jqU5fb"/>
      <point x="1051.9844752837291" y="0.0" type="line" identifier="osRzIFK2Cu"/>
      <point x="1051.9844752837291" y="531.222650263231" type="line" identifier="hIFVovVRwe"/>
      <point x="4174.988762182573" y="531.222650263231" type="line" identifier="Tt6D8zYZmU"/>
      <point x="4174.988762182573" y="1600.0" type="line" identifier="6xW04auDFu"/>
      <point x="470.465150249202" y="1600.0" type="line" identifier="eETO5GBD5v"/>
    </contour>
    <contour>
      <point x="1051.9844752837291" y="899.8870991806418" type="line" identifier="PIBVN1PGv1"/>
      <point x="1051.9844752837291" y="1232.5352530462317" type="line" identifier="IZIZQr2gYJ"/>
      <point x="3593.488143188125" y="1232.5352530462317" type="line" identifier="2c4LCF1E1R"/>
      <point x="3593.488143188125" y="899.8870991806418" type="line" identifier="1WCnzth1GX"/>
    </contour>
  </outline>
</glyph>
<glyph name="R" format="2">
  <advance width="4582"/>
  <unicode hex="0052"/>
  <outline>
    <contour>
      <point x="3538.1617172800757" y="0.0" type="line"/>
      <point x="4143.6685608822945" y="0.0" type="line"/>
      <point x="3494.9994377045173" y="532.2957748639875" type="line"/>
      <point x="2937.280650663605" y="532.2957748639875" type="line"/>
    </contour>
    <contour>
      <point x="453.3082861983871" y="0.0" type="line" identifier="EG08jqU5fb"/>
      <point x="1034.5933872147352" y="0.0" type="line" identifier="osRzIFK2Cu"/>
      <point x="1034.5933872147352" y="520.1619970606611" type="line" identifier="hIFVovVRwe"/>
      <point x="4157.182454171837" y="520.1619970606611" type="line" identifier="Tt6D8zYZmU"/>
      <point x="4157.182454171837" y="1600.0" type="line" identifier="6xW04auDFu"/>
      <point x="453.3082861983871" y="1600.0" type="line" identifier="eETO5GBD5v"/>
    </contour>
    <contour>
      <point x="1034.5933872147352" y="884.5922219598931" type="line" identifier="PIBVN1PGv1"/>
      <point x="1034.5933872147352" y="1231.8671030462317" type="line" identifier="IZIZQr2gYJ"/>
      <point x="3575.4476111592103" y="1231.8671030462317" type="line" identifier="2c4LCF1E1R"/>
      <point x="3575.4476111592103" y="884.5922219598931" type="line" identifier="1WCnzth1GX"/>
    </contour>
  </outline>
</glyph>
<glyph name="S" format="2">
  <advance width="4272"/>
  <unicode hex="0053"/>
  <outline>
    <contour>
      <point x="336.3643602235804" y="0.0" type="line" identifier="09VlJ0BjUX"/>
      <point x="3417.986294077972" y="0.0" type="line" identifier="EagWihqFM8"/>
      <point x="3934.8721870956615" y="631.286306872031" type="line"/>
      <point x="3935.1064111138403" y="986.7826391254767" type="line" identifier="KfNuQA7eZe"/>
      <point x="915.6681672800075" y="986.7826391254767" type="line" identifier="At364YZFEy"/>
      <point x="915.6681672800075" y="889.6506811759193" type="line"/>
      <point x="1253.3168749573679" y="1253.3013287437784" type="line"/>
      <point x="3342.668826254087" y="1253.3013287437784" type="line" identifier="3ZUkG35meB"/>
      <point x="3342.668826254087" y="1082.8652532569058" type="line" identifier="DTOJhFIl15"/>
      <point x="3924.837595248535" y="1082.8652532569058" type="line" identifier="9KDcrfQ5Ui"/>
      <point x="3924.387853252256" y="1600.0" type="line" identifier="SaF9ojRFrW"/>
      <point x="856.4169931247542" y="1600.0" type="line"/>
      <point x="339.53110010706484" y="946.3529615394949" type="line"/>
      <point x="339.53110010706484" y="615.5162487943653" type="line" identifier="3sQ8t8BZ6b"/>
      <point x="3352.5870860793134" y="615.5162487943653" type="line" identifier="yiV6OCBLHg"/>
      <point x="3352.5870860793134" y="686.1049192575067" type="line"/>
      <point x="3010.3031904821114" y="352.29644709590553" type="line" identifier="9kdl9SYsn8"/>
      <point x="917.6494612399285" y="352.29644709590553" type="line" identifier="yZDWuX8LLe"/>
      <point x="917.6494612399285" y="529.3331884480835" type="line" identifier="jYb9001DTm"/>
      <point x="336.3643602235804" y="529.3331884480835" type="line" identifier="ho4DrS0rdW"/>
    </contour>
  </outline>
</glyph>
<glyph name="U" format="2">
  <advance width="4653"/>
  <unicode hex="0055"/>
  <outline>
    <contour>
      <point x="453.3082861983871" y="0.0" type="line" smooth="yes"/>
      <point x="4199.235270030128" y="0.0" type="line" smooth="yes"/>
      <point x="4199.235270030128" y="1600.0" type="line" smooth="yes"/>
      <point x="3617.7159449956007" y="1600.0" type="line" smooth="yes"/>
      <point x="3617.7159449956007" y="367.4647469537684" type="line"/>
      <point x="1034.5933872147352" y="367.4647469537684" type="line" smooth="yes"/>
      <point x="1034.5933872147352" y="1600.0" type="line"/>
      <point x="453.3082861983871" y="1600.0" type="line" smooth="yes"/>
    </contour>
  </outline>
</glyph>
<glyph name="W" format="2">
  <advance width="5141"/>
  <unicode hex="0057"/>
  <outline>
    <contour>
      <point x="1973.2556094639654" y="1600.0" type="line" identifier="0Dn4Xpf57M"/>
      <point x="1364.079336868938" y="355.4372107062799" type="line"/>
      <point x="997.8444322590252" y="355.4372107062799" type="line"/>
      <point x="570.836573409495" y="1600.0" type="line"/>
      <point x="67.0023382041164" y="1600.0" type="line"/>
      <point x="526.0582837415756" y="0.0" type="line"/>
      <point x="1809.579278242504" y="0.0" type="line"/>
      <point x="2384.8712987177223" y="1249.8557523215165" type="line"/>
      <point x="2752.7742835350446" y="1249.8557523215165" type="line" identifier="9aKZPM0HPh"/>
      <point x="3334.116711871848" y="0.0" type="line"/>
      <point x="4617.27133431824" y="0.0" type="line"/>
      <point x="5074.440721851978" y="1600.0" type="line"/>
      <point x="4569.957042686678" y="1600.0" type="line"/>
      <point x="4144.934927797069" y="355.4372107062799" type="line"/>
      <point x="3775.714279227235" y="355.4372107062799" type="line"/>
      <point x="3162.155748770623" y="1600.0" type="line" identifier="spdoeeCFft"/>
    </contour>
  </outline>
</glyph>
<glyph name="X" format="2">
  <advance width="4287"/>
  <unicode hex="0058"/>
  <outline>
    <contour>
      <point x="304.8778330168605" y="0.0" type="line"/>
      <point x="886.6126760294874" y="0.0" type="line"/>
      <point x="886.6126760294874" y="611.870970408461" type="line"/>
      <point x="1340.2125746590643" y="611.4370444266397" type="line"/>
      <point x="2917.22190527167" y="617.2532282700452" type="line"/>
      <point x="3399.6743541995506" y="409.91284641132563" type="line"/>
      <point x="3399.6743541995506" y="0.0" type="line"/>
      <point x="3981.843123193998" y="0.0" type="line"/>
      <point x="3981.843123193998" y="474.9997655686098" type="line"/>
      <point x="3327.866450790037" y="782.6649602586527" type="line"/>
      <point x="3329.9685267718587" y="810.613661646732" type="line"/>
      <point x="3978.745497212177" y="810.613661646732" type="line"/>
      <point x="3978.745497212177" y="1600.0" type="line"/>
      <point x="3386.9831179520625" y="1600.0" type="line"/>
      <point x="3386.9831179520625" y="979.6862734023084" type="line"/>
      <point x="2954.7241839558774" y="979.6862734023084" type="line"/>
      <point x="1355.293339001168" y="974.5382395589029" type="line"/>
      <point x="889.6126760294874" y="1169.3036473994437" type="line"/>
      <point x="889.6126760294874" y="1600.0" type="line"/>
      <point x="308.20968301686054" y="1600.0" type="line"/>
      <point x="308.20968301686054" y="1112.2902223512322" type="line"/>
      <point x="944.9591172096906" y="811.5489977450687" type="line"/>
      <point x="944.9591172096906" y="783.6002963569895" type="line"/>
      <point x="304.8778330168605" y="783.6002963569895" type="line"/>
    </contour>
  </outline>
</glyph>
<glyph name="Y" format="2">
  <advance width="4716"/>
  <unicode hex="0059"/>
  <outline>
    <contour>
      <point x="481.92141131335626" y="0.0" type="line"/>
      <point x="4263.31191115254" y="0.0" type="line" identifier="oOtn61SmRY"/>
      <point x="4263.31191115254" y="1600.0" type="line" identifier="8OglXgblhr"/>
      <point x="3680.6905101361913" y="1600.0" type="line" identifier="db0bPhBdaU"/>
      <point x="3680.6905101361913" y="996.1033377444121" type="line" identifier="MTAeavIVWY"/>
      <point x="1064.5693404243198" y="996.1033377444121" type="line" identifier="lggLiivmLt"/>
      <point x="1058.1373984280413" y="1600.0" type="line" identifier="UPaHY3UudR"/>
      <point x="476.4183714298718" y="1600.0" type="line" identifier="ZnCDQVdtyD"/>
      <point x="483.0500153897928" y="636.3944909397954" type="line" identifier="uqAJBjDIOT"/>
      <point x="3680.6905101361913" y="636.3944909397954" type="line" identifier="7JgTtdb0jg"/>
      <point x="3680.6905101361913" y="359.92436478271657" type="line"/>
      <point x="1063.8746623297045" y="359.92436478271657" type="line"/>
      <point x="1063.8746623297045" y="596.2781788527951" type="line"/>
      <point x="481.92141131335626" y="596.2781788527951" type="line"/>
    </contour>
  </outline>
</glyph>
<glyph name="Z" format="2">
  <advance width="4496"/>
  <unicode hex="005A"/>
  <outline>
    <contour>
      <point x="336.5640621872228" y="0.0" type="line"/>
      <point x="4159.14263058007" y="0.0" type="line" identifier="pzdvPTirLJ"/>
      <point x="4159.14263058007" y="537.5237316498248" type="line" identifier="91SxUS0iwG"/>
      <point x="3577.189379563721" y="537.5237316498248" type="line"/>
      <point x="3577.189379563721" y="359.92436478271657" type="line"/>
      <point x="918.6164991597705" y="359.92436478271657" type="line"/>
      <point x="918.6164991597705" y="598.4774189592034" type="line"/>
      <point x="4158.2532523433165" y="951.3239267133783" type="line" identifier="yyb1NCCI5w"/>
      <point x="4158.2532523433165" y="1600.0" type="line" identifier="5FogYRSgkk"/>
      <point x="359.14632172817517" y="1600.0" type="line" identifier="svlFvrau4c"/>
      <point x="358.2626537500753" y="1160.2295507511653" type="line" identifier="LQ9fBsTy9K"/>
      <point x="889.9752161832172" y="1160.2295507511653" type="line"/>
      <point x="890.7409921650385" y="1240.0756352172837" type="line"/>
      <point x="3576.5184093306902" y="1240.0756352172837" type="line"/>
      <point x="3576.5184093306902" y="1004.9744538743839" type="line"/>
      <point x="336.7982862054016" y="664.6052243639759" type="line" identifier="teVKnpBcVb"/>
    </contour>
  </outline>
</glyph>
<glyph name="B.skinnymiddle" format="2">
  <advance width="4787"/>
  <outline>
    <contour>
      <point x="487.4396730354677" y="0.0" type="line" identifier="hvY9r8RmLr"/>
      <point x="3878.882570621328" y="0.0" type="line" identifier="9QFpw7nfq7"/>
      <point x="4420.189908188529" y="635.1338230286254" type="line"/>
      <point x="4420.189908188529" y="965.8282972713356" type="line" identifier="543PerILpr"/>
      <point x="3714.472223323714" y="965.8282972713356" type="line" identifier="zhomauHW30"/>
      <point x="4081.866098661607" y="1292.2642427001224" type="line"/>
      <point x="4081.866098661607" y="1600.0" type="line" identifier="FaP204GrdB"/>
      <point x="487.4396730354677" y="1600.0" type="line" identifier="JEev70GAj6"/>
    </contour>
    <contour>
      <point x="1054.3121597097122" y="361.5091448409743" type="line" identifier="jaMSiLrCua"/>
      <point x="1054.3121597097122" y="632.8613790017746" type="line" identifier="XSrxNd2axx"/>
      <point x="3852.8834955324646" y="632.8613790017746" type="line" identifier="lsRGatjQja"/>
      <point x="3852.8834955324646" y="697.3577795231739" type="line"/>
      <point x="3501.557807647695" y="361.5091448409743" type="line" identifier="xhlDJ3CjD5"/>
    </contour>
    <contour>
      <point x="1054.3121597097122" y="961.5408451585414" type="line" identifier="By7dfMihfe"/>
      <point x="1054.3121597097122" y="1238.4908551590258" type="line" identifier="1p5hKrurVy"/>
      <point x="3568.7587969345723" y="1238.4908551590258" type="line" identifier="Qby8aMtF2X"/>
      <point x="3568.7587969345723" y="1251.7320215124382" type="line"/>
      <point x="3204.3319595165217" y="961.5408451585414" type="line" identifier="xpxyvIzPoc"/>
    </contour>
  </outline>
</glyph>
<glyph name="C.wide" format="2">
  <advance width="4501"/>
  <outline>
    <contour>
      <point x="332.9934683764535" y="0.0" type="line" identifier="7lPhzTnk2Z"/>
      <point x="4122.911100758764" y="0.0" type="line" identifier="qJVLZGnkwh"/>
      <point x="4122.911100758764" y="367.4647469537684" type="line" identifier="Y750RHTvDj"/>
      <point x="914.7283113890802" y="367.4647469537684" type="line" identifier="L2LsGnXiZ2"/>
      <point x="914.7283113890802" y="885.0215626152418" type="line" identifier="sUWsr03vF4"/>
      <point x="1252.5650007970519" y="1232.5352530462317" type="line" identifier="dbOUe6OhxL"/>
      <point x="4121.911100758764" y="1232.5352530462317" type="line" identifier="5BjRbcud80"/>
      <point x="4121.911100758764" y="1600.0" type="line" identifier="9eJelv8BOw"/>
      <point x="783.1841113063417" y="1600.0" type="line" identifier="lfZev3ICaC"/>
      <point x="332.9934683764535" y="952.5717286437282" type="line" identifier="V1EWIdPahq"/>
    </contour>
  </outline>
</glyph>
<glyph name="E.wide" format="2">
  <advance width="4356"/>
  <outline>
    <contour>
      <point x="458.8425886024701" y="0.0" type="line" identifier="fZynkQ4XHB"/>
      <point x="4001.0405548350286" y="0.0" type="line" identifier="FAQNpgUPxV"/>
      <point x="4001.0405548350286" y="350.6470031359845" type="line" identifier="5cgTYOhATF"/>
      <point x="1040.361913636997" y="350.6470031359845" type="line" identifier="bWs42DaCgU"/>
      <point x="1040.361913636997" y="633.4100923208601" type="line" identifier="VtD2aADJmn"/>
      <point x="3426.263740670134" y="633.4100923208601" type="line" identifier="PpbsFdHAnS"/>
      <point x="3426.263740670134" y="967.3556836609611" type="line" identifier="8WuC5p8Ax5"/>
      <point x="1040.361913636997" y="967.3556836609611" type="line" identifier="m39IWn9ntA"/>
      <point x="1040.361913636997" y="1255.6189227036994" type="line" identifier="gQ21I4SHQg"/>
      <point x="3997.787624776771" y="1255.6189227036994" type="line" identifier="eqNb2VTwYs"/>
      <point x="3997.787624776771" y="1600.0" type="line" identifier="qYRmo14Il5"/>
      <point x="458.8425886024701" y="1600.0" type="line" identifier="HmJIcnLWfC"/>
    </contour>
  </outline>
</glyph>
<glyph name="G.wide" format="2">
  <advance width="4637"/>
  <outline>
    <contour>
      <point x="337.9633963219171" y="0.0" type="line" identifier="7lPhzTnk2Z"/>
      <point x="4270.608675501658" y="0.0" type="line" identifier="qJVLZGnkwh"/>
      <point x="4270.608675501658" y="955.8396479960503" type="line" identifier="uek1NNj7De"/>
      <point x="2792.9546306095626" y="955.8396479960503" type="line" identifier="qcvimxjndX"/>
      <point x="2792.9546306095626" y="599.5016232459701" type="line" identifier="EARaY3Su65"/>
      <point x="3692.8221643687943" y="599.5016232459701" type="line" identifier="4m6dHLVhZq"/>
      <point x="3692.8221643687943" y="361.5091448409743" type="line" identifier="Y750RHTvDj"/>
      <point x="919.482721356444" y="361.5091448409743" type="line" identifier="L2LsGnXiZ2"/>
      <point x="919.482721356444" y="924.9759895517162" type="line" identifier="sUWsr03vF4"/>
      <point x="1244.2718231358624" y="1238.4908551590258" type="line" identifier="dbOUe6OhxL"/>
      <point x="4269.023895443401" y="1238.4908551590258" type="line" identifier="5BjRbcud80"/>
      <point x="4269.023895443401" y="1600.0" type="line" identifier="9eJelv8BOw"/>
      <point x="755.5961262169943" y="1600.0" type="line" identifier="lfZev3ICaC"/>
      <point x="337.9633963219171" y="976.5115300318073" type="line" identifier="V1EWIdPahq"/>
    </contour>
  </outline>
</glyph>
<glyph name="G.wideskinny" format="2">
  <advance width="4632"/>
  <outline>
    <contour>
      <point x="367.09196292596664" y="0.0" type="line" identifier="7lPhzTnk2Z"/>
      <point x="4345.911981204734" y="0.0" type="line" identifier="qJVLZGnkwh"/>
      <point x="4345.911981204734" y="891.0931690889191" type="line" identifier="uek1NNj7De"/>
      <point x="2943.743498197931" y="891.0931690889191" type="line" identifier="qcvimxjndX"/>
      <point x="2943.743498197931" y="604.2230013405853" type="line" identifier="EARaY3Su65"/>
      <point x="3783.8886404540535" y="604.2230013405853" type="line" identifier="4m6dHLVhZq"/>
      <point x="3783.8886404540535" y="361.5091448409743" type="line" identifier="Y750RHTvDj"/>
      <point x="933.9644496002111" y="361.5091448409743" type="line" identifier="L2LsGnXiZ2"/>
      <point x="933.9644496002111" y="915.6166033042277" type="line" identifier="sUWsr03vF4"/>
      <point x="1267.2939335506815" y="1238.4908551590258" type="line" identifier="dbOUe6OhxL"/>
      <point x="4346.3459071865545" y="1238.4908551590258" type="line" identifier="5BjRbcud80"/>
      <point x="4346.3459071865545" y="1600.0" type="line" identifier="9eJelv8BOw"/>
      <point x="789.7779209156593" y="1600.0" type="line" identifier="lfZev3ICaC"/>
      <point x="367.09196292596664" y="972.574633959092" type="line" identifier="V1EWIdPahq"/>
    </contour>
  </outline>
</glyph>
<glyph name="I.narrow" format="2">
  <advance width="1542"/>
  <outline>
    <contour>
      <point x="1054.9616036696332" y="-0.6494439599210075" type="line" identifier="1m237t4hyw"/>
      <point x="1054.9616036696332" y="1600.649443959921" type="line" identifier="v7N4yg5XNk"/>
      <point x="487.4396730354677" y="1600.649443959921" type="line" identifier="zfocDyDTCM"/>
      <point x="487.4396730354677" y="-0.6494439599210075" type="line" identifier="S4rO5KuHiL"/>
    </contour>
  </outline>
</glyph>
<glyph name="L.wide" format="2">
  <advance width="4101"/>
  <outline>
    <contour>
      <point x="448.8337583950606" y="0.0" type="line" identifier="XkJNfQlnnt"/>
      <point x="3746.087703569823" y="0.0" type="line" identifier="82EXZEgt46"/>
      <point x="3746.087703569823" y="367.4647469537684" type="line" identifier="cqpSxwFiM3"/>
      <point x="1030.787009411409" y="367.4647469537684" type="line" identifier="MbxRZRd8vz"/>
      <point x="1030.787009411409" y="1600.0" type="line" identifier="lYiaKSKITt"/>
      <point x="448.8337583950606" y="1600.0" type="line" identifier="XFf4mMUzYo"/>
    </contour>
  </outline>
</glyph>
<glyph name="M.narrow" format="2">
  <advance width="6032"/>
  <outline>
    <contour>
      <point x="4977.5615844809045" y="0.0" type="line" smooth="yes" identifier="12Pyby1xY2"/>
      <point x="5544.415365115069" y="0.0" type="line" smooth="yes" identifier="5LJg4ajoG6"/>
      <point x="5544.415365115069" y="1600.0" type="line" smooth="yes" identifier="ZqTZqAY3uY"/>
      <point x="851.6585318446906" y="1600.0" type="line" smooth="yes" identifier="R4lklfJsHA"/>
      <point x="367.09196292596664" y="954.0670694010792" type="line" smooth="yes" identifier="7g7f8Wu7K4"/>
      <point x="367.09196292596664" y="0.0" type="line" smooth="yes" identifier="RTOJW56qXy"/>
      <point x="934.613893560132" y="0.0" type="line" identifier="JfSFAkWGZC"/>
      <point x="934.613893560132" y="787.4994644840688" type="line" smooth="yes" identifier="WWvGwSpq0g"/>
      <point x="1302.8293291899706" y="1232.5352530462317" type="line" smooth="yes" identifier="oee4nqI8Wl"/>
      <point x="2671.184457763554" y="1232.5352530462317" type="line" identifier="Ljn2lpvpG8"/>
      <point x="2671.184457763554" y="17.417064342103757" type="line" smooth="yes"/>
      <point x="3238.272462415898" y="17.417064342103757" type="line"/>
      <point x="3238.272462415898" y="1232.5352530462317" type="line" identifier="GlWB6PG54Z"/>
      <point x="4977.5615844809045" y="1232.5352530462317" type="line" identifier="iqeTRv7HXg"/>
    </contour>
  </outline>
</glyph>
<glyph name="N.new" format="2">
  <advance width="4317"/>
  <outline>
    <contour>
      <point x="3753.507446955961" y="0.0" type="line"/>
      <point x="3753.507446955961" y="1600.0" type="line"/>
      <point x="3186.6349602817163" y="1600.0" type="line"/>
      <point x="3186.6349602817163" y="1248.9921648498184" type="line"/>
      <point x="3360.4608919106695" y="1248.9921648498184" type="line"/>
      <point x="1268.6507141985314" y="1598.5660740181788" type="line"/>
      <point x="1054.3121597097122" y="1600.0" type="line"/>
      <point x="487.4396730354677" y="1600.0" type="line"/>
      <point x="487.4396730354677" y="0.0" type="line"/>
      <point x="1054.3121597097122" y="0.0" type="line"/>
      <point x="1054.3121597097122" y="929.7465702256721" type="line"/>
      <point x="1060.0353361985592" y="929.7465702256721" type="line"/>
      <point x="3186.6349602817163" y="696.7611483472546" type="line"/>
      <point x="3186.6349602817163" y="0.0" type="line"/>
    </contour>
  </outline>
</glyph>
<glyph name="N.wide" format="2">
  <advance width="4931"/>
  <outline>
    <contour>
      <point x="330.42557050327656" y="0.0" type="line" identifier="CkwYPPvJLv"/>
      <point x="897.2980571775211" y="0.0" type="line" identifier="oHTJsN7drZ"/>
      <point x="897.2980571775211" y="1133.396255646788" type="line" identifier="wfBbYd10Pm"/>
      <point x="1267.6950575828891" y="1133.396255646788" type="line" identifier="MEnBDHq6zU"/>
      <point x="3759.4303765332984" y="0.0" type="line" identifier="3Nbopwznvn"/>
      <point x="4680.451014046337" y="0.0" type="line" identifier="uKfuudIUvA"/>
      <point x="4680.451014046337" y="1600.0" type="line" identifier="XRdLFXiM4t"/>
      <point x="4113.694859393992" y="1600.0" type="line" identifier="MUSJPjCIXg"/>
      <point x="4113.694859393992" y="503.5023375954326" type="line" identifier="VILP20cFmq"/>
      <point x="3751.2965987299717" y="503.5023375954326" type="line" identifier="z5b04GDwRN"/>
      <point x="1280.0443533643154" y="1600.0" type="line" identifier="LL64NQ6WBE"/>
      <point x="330.42557050327656" y="1600.0" type="line" identifier="dzUaaP1sjt"/>
    </contour>
  </outline>
</glyph>
<glyph name="P.wide" format="2">
  <advance width="4281"/>
  <outline>
    <contour>
      <point x="259.9281540553931" y="0.0" type="line" identifier="EG08jqU5fb"/>
      <point x="827.2345667114588" y="0.0" type="line" identifier="osRzIFK2Cu"/>
      <point x="827.2345667114588" y="409.3890976975748" type="line" identifier="hIFVovVRwe"/>
      <point x="4070.3387463663685" y="409.3890976975748" type="line" identifier="Tt6D8zYZmU"/>
      <point x="4070.3387463663685" y="1600.0" type="line" identifier="6xW04auDFu"/>
      <point x="259.9281540553931" y="1600.0" type="line" identifier="eETO5GBD5v"/>
    </contour>
    <contour>
      <point x="827.2345667114588" y="785.8855464728484" type="line" identifier="PIBVN1PGv1"/>
      <point x="827.2345667114588" y="1232.5352530462317" type="line" identifier="IZIZQr2gYJ"/>
      <point x="3503.4662596921235" y="1232.5352530462317" type="line" identifier="2c4LCF1E1R"/>
      <point x="3503.4662596921235" y="785.8855464728484" type="line" identifier="1WCnzth1GX"/>
    </contour>
  </outline>
</glyph>
<glyph name="R.wide" format="2">
  <advance width="4568"/>
  <outline>
    <contour>
      <point x="3627.8981026833626" y="0.0" type="line"/>
      <point x="4195.220331353885" y="0.0" type="line"/>
      <point x="3707.0302947483506" y="615.783434892702" type="line"/>
      <point x="3178.822177298148" y="615.5492108745232" type="line"/>
    </contour>
    <contour>
      <point x="487.4396730354677" y="0.0" type="line" identifier="EG08jqU5fb"/>
      <point x="1054.3121597097122" y="0.0" type="line" identifier="osRzIFK2Cu"/>
      <point x="1054.3121597097122" y="598.5964289947602" type="line" identifier="hIFVovVRwe"/>
      <point x="4231.182421955071" y="598.5964289947602" type="line" identifier="Tt6D8zYZmU"/>
      <point x="4231.182421955071" y="1600.0" type="line" identifier="6xW04auDFu"/>
      <point x="487.4396730354677" y="1600.0" type="line" identifier="eETO5GBD5v"/>
    </contour>
    <contour>
      <point x="1054.3121597097122" y="966.4951019303497" type="line" identifier="PIBVN1PGv1"/>
      <point x="1054.3121597097122" y="1232.5352530462317" type="line" identifier="IZIZQr2gYJ"/>
      <point x="3664.0944173027265" y="1232.5352530462317" type="line" identifier="2c4LCF1E1R"/>
      <point x="3664.0944173027265" y="966.4951019303497" type="line" identifier="1WCnzth1GX"/>
    </contour>
  </outline>
</glyph>
<glyph name="S.wide" format="2">
  <advance width="4495"/>
  <outline>
    <contour>
      <point x="334.79665643843265" y="0.0" type="line" identifier="09VlJ0BjUX"/>
      <point x="3689.0589956609174" y="0.0" type="line" identifier="EagWihqFM8"/>
      <point x="4159.997362466846" y="629.8178588356735" type="line"/>
      <point x="4159.997362466846" y="984.268233227535" type="line" identifier="KfNuQA7eZe"/>
      <point x="903.5600813238079" y="984.268233227535" type="line" identifier="At364YZFEy"/>
      <point x="903.5600813238079" y="892.0544653106138" type="line"/>
      <point x="1247.0249728445735" y="1252.6518847838574" type="line"/>
      <point x="4154.741542382967" y="1252.6518847838574" type="line" identifier="3ZUkG35meB"/>
      <point x="4154.507318364789" y="1599.350556040079" type="line" identifier="SaF9ojRFrW"/>
      <point x="813.4348750658678" y="1599.350556040079" type="line"/>
      <point x="337.1142503983537" y="945.6848115394948" type="line"/>
      <point x="337.1142503983537" y="612.6671028708017" type="line" identifier="3sQ8t8BZ6b"/>
      <point x="3587.403497697987" y="612.6671028708017" type="line" identifier="yiV6OCBLHg"/>
      <point x="3587.403497697987" y="683.0516911628915" type="line"/>
      <point x="3244.685676118964" y="352.29644709590553" type="line" identifier="9kdl9SYsn8"/>
      <point x="334.79665643843265" y="352.29644709590553" type="line" identifier="yZDWuX8LLe"/>
    </contour>
  </outline>
</glyph>
<glyph name="S.wideskinny" format="2">
  <advance width="4527"/>
  <outline>
    <contour>
      <point x="367.65803694414546" y="0.0" type="line" identifier="09VlJ0BjUX"/>
      <point x="3685.338688992546" y="0.0" type="line" identifier="EagWihqFM8"/>
      <point x="4159.663693867469" y="636.1240169885465" type="line"/>
      <point x="4159.78002588937" y="975.2752190345828" type="line" identifier="KfNuQA7eZe"/>
      <point x="930.231635698548" y="975.2752190345828" type="line" identifier="At364YZFEy"/>
      <point x="930.231635698548" y="877.4076269503311" type="line"/>
      <point x="1283.705357426723" y="1252.6518847838574" type="line"/>
      <point x="4154.958131787312" y="1252.6518847838574" type="line" identifier="3ZUkG35meB"/>
      <point x="4154.524205805491" y="1599.350556040079" type="line" identifier="SaF9ojRFrW"/>
      <point x="849.7992256624746" y="1599.350556040079" type="line"/>
      <point x="369.9756309040665" y="941.6315834448795" type="line"/>
      <point x="369.9756309040665" y="620.9919670637538" type="line" identifier="3sQ8t8BZ6b"/>
      <point x="3591.9075392151253" y="620.9919670637538" type="line" identifier="yiV6OCBLHg"/>
      <point x="3591.9075392151253" y="697.4643055049952" type="line"/>
      <point x="3239.6148134105138" y="352.29644709590553" type="line" identifier="9kdl9SYsn8"/>
      <point x="367.65803694414546" y="352.29644709590553" type="line" identifier="yZDWuX8LLe"/>
    </contour>
  </outline>
</glyph>
<glyph name="U.alt" format="2">
  <advance width="4491"/>
  <outline>
    <contour>
      <point x="3624.495648599912" y="1600.0" type="line" smooth="yes"/>
      <point x="3624.495648599912" y="367.4647469537684" type="line"/>
      <point x="831.953124573043" y="367.4647469537684" type="line" smooth="yes"/>
      <point x="831.953124573043" y="1600.0" type="line"/>
      <point x="265.0806378987986" y="1600.0" type="line" smooth="yes"/>
      <point x="265.0806378987986" y="0.0" type="line" smooth="yes"/>
      <point x="4191.251803252256" y="0.0" type="line" smooth="yes"/>
      <point x="4191.251803252256" y="1600.0" type="line" smooth="yes"/>
    </contour>
  </outline>
</glyph>
<glyph name="Y.wide" format="2">
  <advance width="4741"/>
  <outline>
    <contour>
      <point x="480.097517936013" y="0.0" type="line"/>
      <point x="4277.83859436064" y="0.0" type="line" identifier="oOtn61SmRY"/>
      <point x="4277.83859436064" y="1600.0" type="line" identifier="8OglXgblhr"/>
      <point x="3695.5347873042115" y="1600.0" type="line" identifier="db0bPhBdaU"/>
      <point x="3695.5347873042115" y="986.3100255151024" type="line" identifier="MTAeavIVWY"/>
      <point x="1037.0646554841242" y="986.3100255151024" type="line" identifier="lggLiivmLt"/>
      <point x="1037.0646554841242" y="1600.0" type="line" identifier="UPaHY3UudR"/>
      <point x="455.54533044959703" y="1600.0" type="line" identifier="ZnCDQVdtyD"/>
      <point x="455.54533044959703" y="624.3669546923069" type="line" identifier="uqAJBjDIOT"/>
      <point x="3695.5347873042115" y="624.3669546923069" type="line" identifier="7JgTtdb0jg"/>
      <point x="3695.5347873042115" y="361.5091448409743" type="line"/>
      <point x="480.097517936013" y="361.5091448409743" type="line"/>
    </contour>
  </outline>
</glyph>
<glyph name="Y.wideskinny" format="2">
  <advance width="4809"/>
  <outline>
    <contour>
      <point x="509.15697063839923" y="0.0" type="line"/>
      <point x="4322.428553401408" y="0.0" type="line" identifier="oOtn61SmRY"/>
      <point x="4322.428553401408" y="1600.0" type="line" identifier="8OglXgblhr"/>
      <point x="3754.6723987490636" y="1600.0" type="line" identifier="db0bPhBdaU"/>
      <point x="3754.6723987490636" y="967.6587371548198" type="line" identifier="MTAeavIVWY"/>
      <point x="1050.243045808049" y="967.6587371548198" type="line" identifier="lggLiivmLt"/>
      <point x="1050.243045808049" y="1600.0" type="line" identifier="UPaHY3UudR"/>
      <point x="483.37055913380453" y="1600.0" type="line" identifier="ZnCDQVdtyD"/>
      <point x="483.37055913380453" y="627.9704407906438" type="line" identifier="uqAJBjDIOT"/>
      <point x="3754.6723987490636" y="627.9704407906438" type="line" identifier="7JgTtdb0jg"/>
      <point x="3754.6723987490636" y="361.5091448409743" type="line"/>
      <point x="509.15697063839923" y="361.5091448409743" type="line"/>
    </contour>
  </outline>
</glyph>
<glyph name="Z.wide" format="2">
  <advance width="4499"/>
  <outline>
    <contour>
      <point x="358.60049843471126" y="0.0" type="line"/>
      <point x="4140.9789596573955" y="0.0" type="line" identifier="pzdvPTirLJ"/>
      <point x="4140.9789596573955" y="359.92436478271657" type="line"/>
      <point x="950.1286536766477" y="359.92436478271657" type="line"/>
      <point x="950.1286536766477" y="628.4049330030039" type="line"/>
      <point x="4123.472675529716" y="1000.7980097233966" type="line" identifier="yyb1NCCI5w"/>
      <point x="4123.472675529716" y="1600.0" type="line" identifier="5FogYRSgkk"/>
      <point x="354.6606425437839" y="1600.0" type="line" identifier="svlFvrau4c"/>
      <point x="354.6606425437839" y="1240.0756352172837" type="line"/>
      <point x="3530.8798563861164" y="1240.0756352172837" type="line"/>
      <point x="3530.8798563861164" y="1049.2890672339488" type="line"/>
      <point x="358.60049843471126" y="690.8113603131611" type="line" identifier="teVKnpBcVb"/>
    </contour>
  </outline>
</glyph>
<glyph name="eight.skinnymiddle" format="2">
  <advance width="4969"/>
  <outline>
    <contour>
      <point x="3608.0431016603447" y="628.8541087687435" type="line"/>
      <point x="3913.371598003305" y="409.18313716867664" type="line"/>
      <point x="3913.371598003305" y="359.92436478271657" type="line"/>
      <point x="1054.414445069305" y="359.92436478271657" type="line"/>
      <point x="1054.414445069305" y="405.9302071104189" type="line"/>
      <point x="1361.1768673940867" y="628.8541087687435" type="line"/>
    </contour>
    <contour>
      <point x="4109.880027547694" y="792.383518120237" type="line"/>
      <point x="4109.880027547694" y="807.616481879763" type="line"/>
      <point x="4477.56167863747" y="1135.204461443244" type="line"/>
      <point x="4477.56167863747" y="1600.0" type="line"/>
      <point x="491.54195839506065" y="1600.0" type="line"/>
      <point x="491.54195839506065" y="1135.204461443244" type="line"/>
      <point x="859.5554594848365" y="807.616481879763" type="line"/>
      <point x="859.5554594848365" y="792.383518120237" type="line"/>
      <point x="487.6582904169608" y="455.13875457121316" type="line"/>
      <point x="487.6582904169608" y="0.0" type="line"/>
      <point x="4481.56167863747" y="0.0" type="line"/>
      <point x="4481.56167863747" y="455.13875457121316" type="line"/>
    </contour>
    <contour>
      <point x="1361.1768673940867" y="971.1458912312565" type="line"/>
      <point x="1058.414445069305" y="1183.1787848858598" type="line"/>
      <point x="1058.1802210511262" y="1240.0756352172837" type="line"/>
      <point x="3910.255265981405" y="1240.0756352172837" type="line"/>
      <point x="3910.039748003305" y="1183.1787848858598" type="line"/>
      <point x="3608.0431016603447" y="971.1458912312565" type="line"/>
    </contour>
  </outline>
</glyph>
<glyph name="five.wide" format="2">
  <advance width="4529"/>
  <outline>
    <contour>
      <point x="337.5640621872228" y="0.0" type="line" identifier="09VlJ0BjUX"/>
      <point x="4192.482210659371" y="0.0" type="line" identifier="EagWihqFM8"/>
      <point x="4192.482210659371" y="977.1201993841296" type="line" identifier="KfNuQA7eZe"/>
      <point x="918.1825731779493" y="977.1201993841296" type="line" identifier="At364YZFEy"/>
      <point x="918.1825731779493" y="1238.4908551590258" type="line" identifier="BcuLfvaQKC"/>
      <point x="4191.83276669945" y="1238.4908551590258" type="line" identifier="3ZUkG35meB"/>
      <point x="4191.83276669945" y="1600.0" type="line" identifier="SaF9ojRFrW"/>
      <point x="336.5640621872228" y="1600.0" type="line" identifier="F4sQEYelA8"/>
      <point x="336.5640621872228" y="620.4645806741282" type="line" identifier="3sQ8t8BZ6b"/>
      <point x="3611.079217646744" y="620.4645806741282" type="line" identifier="yiV6OCBLHg"/>
      <point x="3611.079217646744" y="361.5091448409743" type="line" identifier="9kdl9SYsn8"/>
      <point x="337.5640621872228" y="361.5091448409743" type="line" identifier="yZDWuX8LLe"/>
    </contour>
  </outline>
</glyph>
<glyph name="five.wideskinny" format="2">
  <advance width="4849"/>
  <outline>
    <contour>
      <point x="488.2243644351396" y="0.0" type="line" identifier="09VlJ0BjUX"/>
      <point x="4361.158613347728" y="0.0" type="line" identifier="EagWihqFM8"/>
      <point x="4361.158613347728" y="968.4777412312566" type="line" identifier="KfNuQA7eZe"/>
      <point x="1054.414445069305" y="968.4777412312566" type="line" identifier="At364YZFEy"/>
      <point x="1054.414445069305" y="1238.4908551590258" type="line" identifier="BcuLfvaQKC"/>
      <point x="4360.509169387807" y="1238.4908551590258" type="line" identifier="3ZUkG35meB"/>
      <point x="4360.509169387807" y="1600.0" type="line" identifier="SaF9ojRFrW"/>
      <point x="487.6582904169608" y="1600.0" type="line" identifier="F4sQEYelA8"/>
      <point x="487.6582904169608" y="629.4388888270013" type="line" identifier="3sQ8t8BZ6b"/>
      <point x="3794.5203506916623" y="629.4388888270013" type="line" identifier="yiV6OCBLHg"/>
      <point x="3794.5203506916623" y="361.5091448409743" type="line" identifier="9kdl9SYsn8"/>
      <point x="488.2243644351396" y="361.5091448409743" type="line" identifier="yZDWuX8LLe"/>
    </contour>
  </outline>
</glyph>
<glyph name="nine.wide" format="2">
  <advance width="4602"/>
  <outline>
    <contour>
      <point x="395.59829292287384" y="0.0" type="line" identifier="oGvEEuxnYv"/>
      <point x="4271.460338564527" y="0.0" type="line" identifier="xR3pEHbMJx"/>
      <point x="4271.460338564527" y="1600.0" type="line" identifier="uiw6aBUf4P"/>
      <point x="393.5149229811316" y="1600.0" type="line" identifier="jtYkxiUX6G"/>
      <point x="393.5149229811316" y="621.6642826377705" type="line" identifier="2G5L37c87I"/>
      <point x="3690.175237548179" y="621.6642826377705" type="line"/>
      <point x="3690.175237548179" y="361.5091448409743" type="line"/>
      <point x="395.59829292287384" y="361.5091448409743" type="line"/>
    </contour>
    <contour>
      <point x="975.4681739974798" y="978.3357173622295" type="line"/>
      <point x="975.4681739974798" y="1238.4908551590258" type="line"/>
      <point x="3690.175237548179" y="1238.4908551590258" type="line"/>
      <point x="3690.175237548179" y="978.3357173622295" type="line"/>
    </contour>
  </outline>
</glyph>
<glyph name="one.narrow" format="2">
  <advance width="2941"/>
  <outline>
    <contour>
      <point x="2453.4502322766816" y="0.0" type="line" identifier="5nmxQXofSG"/>
      <point x="2453.4502322766816" y="1600.0" type="line" identifier="4rjIeWbSbx"/>
      <point x="367.09196292596664" y="1600.0" type="line"/>
      <point x="367.09196292596664" y="1232.5352530462317" type="line"/>
      <point x="1886.6940776243373" y="1232.5352530462317" type="line"/>
      <point x="1886.6940776243373" y="0.0" type="line"/>
    </contour>
  </outline>
</glyph>
<glyph name="seven.alt" format="2">
  <advance width="4217"/>
  <outline>
    <contour>
      <point x="287.9747352717918" y="1600.0" type="line" identifier="jiO9eX9U07"/>
      <point x="3851.4601333455857" y="1600.0" type="line" identifier="wgpFs1yguc"/>
      <point x="3851.4601333455857" y="0.0" type="line" identifier="d5Di3vNzni"/>
      <point x="3283.9382027114207" y="0.0" type="line" identifier="46RrD1WET2"/>
      <point x="3283.9382027114207" y="1232.5352530462317" type="line" identifier="zFXsE8BUYG"/>
      <point x="855.730889924136" y="1232.5352530462317" type="line" identifier="NQmE31PUns"/>
      <point x="854.8472219460364" y="700.2902812496914" type="line" identifier="qiXxY6YhCq"/>
      <point x="287.9747352717918" y="700.2902812496914" type="line" identifier="7exNZv1XSc"/>
    </contour>
  </outline>
</glyph>
<glyph name="six.wide" format="2">
  <advance width="4557"/>
  <outline>
    <contour>
      <point x="352.0124349191524" y="0.0" type="line" identifier="uiw6aBUf4P"/>
      <point x="4262.720254429833" y="0.0" type="line" identifier="jtYkxiUX6G"/>
      <point x="4262.720254429833" y="920.3695549029815" type="line" identifier="2G5L37c87I"/>
      <point x="933.1812039136005" y="920.3695549029815" type="line"/>
      <point x="933.1812039136005" y="940.431881481237" type="line"/>
      <point x="1253.3395677731767" y="1238.4908551590258" type="line"/>
      <point x="4260.636884488091" y="1238.4908551590258" type="line"/>
      <point x="4260.636884488091" y="1600.0" type="line" identifier="oGvEEuxnYv"/>
      <point x="746.3690634261504" y="1600.0" type="line" identifier="xR3pEHbMJx"/>
      <point x="352.0124349191524" y="983.3724663546753" type="line" identifier="KnMArb0tv8"/>
    </contour>
    <contour>
      <point x="3680.767003413485" y="610.133990932781" type="line"/>
      <point x="3680.767003413485" y="361.5091448409743" type="line"/>
      <point x="933.1812039136005" y="361.5091448409743" type="line"/>
      <point x="933.1812039136005" y="610.133990932781" type="line"/>
    </contour>
  </outline>
</glyph>
<glyph name="three.wide" format="2">
  <advance width="4780"/>
  <outline>
    <contour>
      <point x="368.6091292984705" y="0.0" type="line" identifier="O9abUc1nmN"/>
      <point x="4327.109779009546" y="0.0" type="line" identifier="kMJYMTfXCq"/>
      <point x="4327.109779009546" y="955.0694220142292" type="line" identifier="su2XmdS8e8"/>
      <point x="3995.3796495408806" y="955.0694220142292" type="line" identifier="JQaOzDQqlF"/>
      <point x="3995.3796495408806" y="1600.0" type="line" identifier="xg8x2Ki40p"/>
      <point x="333.8669608061581" y="1600.0" type="line" identifier="pE1XSRiy68"/>
      <point x="333.8669608061581" y="1238.4908551590258" type="line" identifier="7ogBYufWpl"/>
      <point x="3413.644806528254" y="1238.4908551590258" type="line" identifier="RHLvSX2Jv6"/>
      <point x="3413.644806528254" y="958.1527919559715" type="line" identifier="iic1IBkDqp"/>
      <point x="1049.4067561471438" y="958.1527919559715" type="line" identifier="lRLJEhXMlO"/>
      <point x="1049.4067561471438" y="601.814767205891" type="line" identifier="8aKgEELrVU"/>
      <point x="3745.1565279931974" y="601.814767205891" type="line" identifier="Dm8zjmbhNr"/>
      <point x="3745.1565279931974" y="361.5091448409743" type="line" identifier="xv9CFHiFgB"/>
      <point x="368.6091292984705" y="361.5091448409743" type="line" identifier="YajKQV3MHP"/>
    </contour>
  </outline>
</glyph>
<glyph name="two.wide" format="2">
  <advance width="4417"/>
  <outline>
    <contour>
      <point x="379.0737506896425" y="0.0" type="line"/>
      <point x="4121.360902513513" y="0.0" type="line" identifier="pzdvPTirLJ"/>
      <point x="4120.810644509791" y="361.5091448409743" type="line"/>
      <point x="960.8085937022693" y="361.5091448409743" type="line"/>
      <point x="960.8085937022693" y="612.0176589108808" type="line"/>
      <point x="4115.849262345753" y="612.0176589108808" type="line" identifier="yyb1NCCI5w"/>
      <point x="4115.849262345753" y="1600.0" type="line" identifier="5FogYRSgkk"/>
      <point x="385.25630658758433" y="1600.0" type="line" identifier="svlFvrau4c"/>
      <point x="385.25630658758433" y="1238.4908551590258" type="line"/>
      <point x="3533.8960113294056" y="1238.4908551590258" type="line"/>
      <point x="3533.8960113294056" y="968.0051276208821" type="line"/>
      <point x="379.0737506896425" y="968.0051276208821" type="line" identifier="teVKnpBcVb"/>
    </contour>
  </outline>
</glyph>
<glyph name="two.wideskinny" format="2">
  <advance width="4474"/>
  <outline>
    <contour>
      <point x="396.1890370862826" y="0.0" type="line"/>
      <point x="4163.716637536102" y="0.0" type="line" identifier="pzdvPTirLJ"/>
      <point x="4163.2827115542805" y="361.5091448409743" type="line"/>
      <point x="963.061523760527" y="361.5091448409743" type="line"/>
      <point x="963.061523760527" y="620.9919670637538" type="line"/>
      <point x="4155.952067310085" y="620.9919670637538" type="line" identifier="yyb1NCCI5w"/>
      <point x="4155.952067310085" y="1600.0" type="line" identifier="5FogYRSgkk"/>
      <point x="402.2724070280248" y="1600.0" type="line" identifier="svlFvrau4c"/>
      <point x="402.2724070280248" y="1238.4908551590258" type="line"/>
      <point x="3588.64565465402" y="1238.4908551590258" type="line"/>
      <point x="3588.64565465402" y="959.4460394097513" type="line"/>
      <point x="396.1890370862826" y="959.4460394097513" type="line" identifier="teVKnpBcVb"/>
    </contour>
  </outline>
</glyph>
